PathFileType	4	(X/Y/Z)	0_coords_data.trc
DataRate	CameraRate	NumFrames	NumMarkers	Units	OrigDataRate	OrigDataStartFrame	OrigNumFrames
30.0	30.0	4	21	m	30.0	1	48
Frame#	Time	THUMB_TIP	THUMB_IP	THUMB_MCP	THUMB_CMC	INDEX_TIP	INDEX_DIP	INDEX_PIP	INDEX_MCP	MIDDLE_TIP	MIDDLE_DIP	MIDDLE_PIP	MIDDLE_MCP	RING_TIP	RING_DIP	RING_PIP	RING_MCP	PINKY_TIP	PINKY_DIP	PINKY_PIP	PINKY_MCP	WRIST
X1	Y1	Z1	X2	Y2	Z2	X3	Y3	Z3	X4	Y4	Z4	X5	Y5	Z5	X6	Y6	Z6	X7	Y7	Z7	X8	Y8	Z8	X9	Y9	Z9	X10	Y10	Z10	X11	Y11	Z11	X12	Y12	Z12	X13	Y13	Z13	X14	Y14	Z14	X15	Y15	Z15	X16	Y16	Z16	X17	Y17	Z17	X18	Y18	Z18	X19	Y19	Z19	X20	Y20	Z20	X21	Y21	Z21
0	-2.749317978547796e-18	0.4775783167654857	-0.016811433594401515	-0.16955737388773662	0.4854312807198491	-0.023140422725935972	-0.14891094916808154	0.4722650812054534	-0.02739590797906588	-0.12102973621728758	0.4745836642401873	-0.030925427818040085	-0.07662189161278854	0.5705171264997204	0.024519509549296603	-0.1728037875421185	0.5572966203547971	0.018466026916703848	-0.16200686366126515	0.5392709894087256	0.010185667016243793	-0.1465627028904466	0.5083388748902956	-0.0004884801273269401	-0.1193064564838679	0.5968363065572008	0.036995170717784465	-0.14107395549848484	0.5825709829641208	0.02842370998913457	-0.13393038469937243	0.5584272351967242	0.017295314661223693	-0.12198685878906987	0.5206308607114142	0.0054087209426396665	-0.10134004580169767	0.6017448369505263	0.039718568488959605	-0.10874963562742018	0.5868165639610187	0.03140193711112904	-0.10300678719863293	0.5651715832043952	0.021658085101635027	-0.09547471344285499	0.5306072366499986	0.004495917521436077	-0.08341292314386725	0.600532508471544	0.026407575752533274	-0.0639998169209891	0.5841043851778309	0.021749494565987626	-0.06280858029205819	0.5638196015716485	0.01639584112456305	-0.061985192242911824	0.5311451814634394	0.0011844792674104987	-0.06335639319208897	0.4622830810018608	-0.023011742144276925	-0.051989820119430985
1	0.03333333333333339	0.47764835221222013	-0.017037677604037182	-0.16957998388398574	0.4854610813768079	-0.02328495309570433	-0.14889344691106504	0.47226719622756175	-0.027524107025643008	-0.12102283571168901	0.47459489809697497	-0.030952540280946295	-0.07660754949825724	0.5704824318233751	0.024374463874966446	-0.17288566590916432	0.5572704065469233	0.018336026376252423	-0.16206995230956678	0.5392561492217207	0.010059155341822001	-0.14661065827973496	0.5083097207184936	-0.0005792613381611078	-0.11935669072567573	0.5968081028108253	0.0367983471659703	-0.14122031306096022	0.5825430888256847	0.028242754422424743	-0.13405712879624024	0.558400976767736	0.01714369352154932	-0.12208303916486896	0.5205711054487167	0.00536200701970535	-0.10143744350480863	0.6017478157717427	0.03950669306371879	-0.10899449269419112	0.5868201151221869	0.03121202841706583	-0.1032184826771626	0.5651654170364678	0.021527794837174707	-0.09563760873107471	0.5306093828802866	0.004421152838823161	-0.08347355772258783	0.6004868949118078	0.026487784852405327	-0.06438017784674507	0.5840685550782755	0.02181351039369539	-0.06311951318264963	0.5637932099377789	0.016439951566665556	-0.06219904375556634	0.5311463679253349	0.001155933635120454	-0.06340980941527574	0.4622830810018608	-0.023011742144276925	-0.051989820119430985
2	0.06666666666666676	0.47771304906541723	-0.017217001467711768	-0.16959756372608775	0.48548479523018495	-0.023396514928403778	-0.14887526716080463	0.47226347917979294	-0.027625207542972596	-0.12101606830895068	0.4746058036118773	-0.030973206329055203	-0.07659541522524144	0.5704589811834296	0.024271781342525167	-0.17293740259235124	0.5572486624332846	0.018248639298725333	-0.16211108103608018	0.5392384462406673	0.009975604492019063	-0.14664502656888617	0.5082764811433335	-0.0006359324875755412	-0.11939822686245866	0.5967860560599816	0.03664627006060739	-0.14133340773687003	0.5825179674948411	0.028108052703352704	-0.134155630012701	0.5583706822446927	0.017041843678324953	-0.1221615822029597	0.5205176749872565	0.005336287894361358	-0.10151508791562347	0.6017530962676426	0.03933385933680322	-0.10918901312733048	0.586823727751154	0.031060368030228602	-0.10338700508709886	0.5651581678615586	0.021431255954166062	-0.09576705139321179	0.5306018430212532	0.0043811357610985535	-0.08352472118474003	0.600450720914786	0.026547591276156246	-0.06467417856958593	0.5840393568412641	0.021863581271686305	-0.06335995654711865	0.5637706144424995	0.016478367701101893	-0.0623651825166405	0.5311424829076258	0.001145401646104216	-0.06345542813083624	0.4622830810018609	-0.023011742144276925	-0.051989820119430985
3	0.10000000000000014	0.4777736422307305	-0.01735478223519349	-0.1696106341317084	0.4855042548602815	-0.02347929961276707	-0.14885664860449882	0.47225555884203374	-0.027702332480930347	-0.12100960123479582	0.47461624798993796	-0.030988308585563784	-0.0765852891097134	0.5704461988748429	0.02420522205542175	-0.17296250557913453	0.5572315821150199	0.018197600694831118	-0.16213280616138637	0.5392188438512762	0.00992909560692068	-0.14666726650532966	0.5082400071825315	-0.0006628721037320595	-0.11943203210817918	0.5967696914284593	0.03653312927408081	-0.14141728888407257	0.5824955683042063	0.028013591621387723	-0.13422932065807042	0.5583374999675107	0.016982822268004516	-0.12222434620112105	0.5204698582806638	0.005329337590811445	-0.1015752317175651	0.6017604195105043	0.0391960357390545	-0.10933901561279324	0.5868274059974576	0.030942951778956562	-0.10351735669400167	0.5651500997308293	0.02136458955022269	-0.09586690905755832	0.5305861101521868	0.0043713346386164975	-0.0835672852455602	0.6004234732613724	0.02658982491671158	-0.06489314012318012	0.5840164768847229	0.021901885761684503	-0.063538999666885	0.5637517036020965	0.016512124221423008	-0.062489498193390586	0.5311342639784379	0.0011505685484995976	-0.0634938341454857	0.4622830810018609	-0.023011742144276925	-0.051989820119430985
